<?xml version="1.0" encoding="UTF-8" standalone="no"?>
<!-- Created with Inkscape (http://www.inkscape.org/) -->

<svg
   xmlns:dc="http://purl.org/dc/elements/1.1/"
   xmlns:cc="http://creativecommons.org/ns#"
   xmlns:rdf="http://www.w3.org/1999/02/22-rdf-syntax-ns#"
   xmlns:svg="http://www.w3.org/2000/svg"
   xmlns="http://www.w3.org/2000/svg"
   xmlns:sodipodi="http://sodipodi.sourceforge.net/DTD/sodipodi-0.dtd"
   xmlns:inkscape="http://www.inkscape.org/namespaces/inkscape"
   width="544.06256"
   height="397.0022"
   id="svg5072"
   version="1.1"
   inkscape:version="0.48.1 r9760"
   sodipodi:docname="explanation1.png">
  <defs
     id="defs5074">
    <inkscape:path-effect
       effect="skeletal"
       id="path-effect5825"
       is_visible="true"
       pattern="M 0,0 0,10 10,5 z"
       copytype="single_stretched"
       prop_scale="1"
       scale_y_rel="false"
       spacing="0"
       normal_offset="0"
       tang_offset="0"
       prop_units="false"
       vertical_pattern="false"
       fuse_tolerance="0" />
    <inkscape:path-effect
       effect="skeletal"
       id="path-effect5751"
       is_visible="true"
       pattern="m -31.546818,-148.26252 0,10 10,-5 z"
       copytype="single_stretched"
       prop_scale="1"
       scale_y_rel="false"
       spacing="0"
       normal_offset="0"
       tang_offset="0"
       prop_units="false"
       vertical_pattern="false"
       fuse_tolerance="0" />
    <inkscape:path-effect
       fuse_tolerance="0"
       vertical_pattern="false"
       prop_units="false"
       tang_offset="0"
       normal_offset="0"
       spacing="0"
       scale_y_rel="false"
       prop_scale="1"
       copytype="single_stretched"
       pattern="m 285.36998,-159.30919 0,10 10,-5 z"
       is_visible="true"
       id="path-effect5726"
       effect="skeletal" />
    <inkscape:path-effect
       effect="skeletal"
       id="path-effect5722"
       is_visible="true"
       pattern="m 48.120661,37.651287 0,9.999999 10,-4.999999 z"
       copytype="single_stretched"
       prop_scale="1"
       scale_y_rel="false"
       spacing="0"
       normal_offset="0"
       tang_offset="0"
       prop_units="false"
       vertical_pattern="false"
       fuse_tolerance="0" />
    <inkscape:path-effect
       fuse_tolerance="0"
       vertical_pattern="false"
       prop_units="false"
       tang_offset="0"
       normal_offset="0"
       spacing="0"
       scale_y_rel="false"
       prop_scale="1"
       copytype="single_stretched"
       pattern="m -115.15379,-226.23947 0,10 10,-5 z"
       is_visible="true"
       id="path-effect5726-5"
       effect="skeletal" />
  </defs>
  <sodipodi:namedview
     id="base"
     pagecolor="#ffffff"
     bordercolor="#666666"
     borderopacity="1.0"
     inkscape:pageopacity="0.0"
     inkscape:pageshadow="2"
     inkscape:zoom="0.35"
     inkscape:cx="-406.1787"
     inkscape:cy="207.36332"
     inkscape:document-units="px"
     inkscape:current-layer="layer1"
     showgrid="false"
     showguides="true"
     inkscape:guide-bbox="true"
     fit-margin-top="0"
     fit-margin-left="0"
     fit-margin-right="0"
     fit-margin-bottom="0"
     inkscape:snap-global="true"
     inkscape:window-width="1024"
     inkscape:window-height="527"
     inkscape:window-x="0"
     inkscape:window-y="24"
     inkscape:window-maximized="1">
    <sodipodi:guide
       orientation="1,0"
       position="432.43312,345.57532"
       id="guide5082" />
    <sodipodi:guide
       orientation="1,0"
       position="282.6474,277.93248"
       id="guide5084" />
    <sodipodi:guide
       orientation="0,1"
       position="177.6474,202.21819"
       id="guide5086" />
    <sodipodi:guide
       orientation="1,0"
       position="357.6474,202.21819"
       id="guide5088" />
    <sodipodi:guide
       orientation="0,1"
       position="225.50454,277.21819"
       id="guide5090" />
    <sodipodi:guide
       orientation="0,1"
       position="341.21883,239.36105"
       id="guide5092" />
    <sodipodi:guide
       orientation="1,0"
       position="320.1474,226.5039"
       id="guide5094" />
    <sodipodi:guide
       orientation="1,0"
       position="207.65123,245.91494"
       id="guide5096" />
    <sodipodi:guide
       orientation="0,1"
       position="207.65123,128.98978"
       id="guide5618" />
  </sodipodi:namedview>
  <metadata
     id="metadata5077">
    <rdf:RDF>
      <cc:Work
         rdf:about="">
        <dc:format>image/svg+xml</dc:format>
        <dc:type
           rdf:resource="http://purl.org/dc/dcmitype/StillImage" />
        <dc:title></dc:title>
      </cc:Work>
    </rdf:RDF>
  </metadata>
  <g
     inkscape:label="Layer 1"
     inkscape:groupmode="layer"
     id="layer1"
     transform="translate(131.71883,44.064702)">
    <rect
       style="fill:#000000;fill-opacity:1;stroke:#000000;stroke-width:1;stroke-linecap:butt;stroke-linejoin:round;stroke-miterlimit:4;stroke-opacity:0;stroke-dasharray:none;stroke-dashoffset:0"
       id="rect5100"
       width="74.99617"
       height="75"
       x="-60.49617"
       y="75.719315" />
    <rect
       style="fill:#ff0000;fill-opacity:1;stroke:#000000;stroke-width:1;stroke-linecap:butt;stroke-linejoin:round;stroke-miterlimit:4;stroke-opacity:0;stroke-dasharray:none;stroke-dashoffset:0"
       id="rect5610"
       width="37.5"
       height="37.5"
       x="206.42857"
       y="6.0187874"
       inkscape:transform-center-x="19.25" />
    <rect
       style="fill:#000000;fill-opacity:1;stroke:#000000;stroke-width:1;stroke-linecap:butt;stroke-linejoin:round;stroke-miterlimit:4;stroke-opacity:0;stroke-dasharray:none;stroke-dashoffset:0"
       id="rect5612"
       width="37.5"
       height="37.14286"
       x="187.5"
       y="112.85714"
       transform="translate(0.92857087,0.71931339)" />
    <rect
       style="fill:#00aad4;fill-opacity:1;stroke:#000000;stroke-width:1;stroke-linecap:butt;stroke-linejoin:round;stroke-miterlimit:4;stroke-opacity:0;stroke-dasharray:none;stroke-dashoffset:0"
       id="rect5614"
       width="37.5"
       height="37.14286"
       x="150"
       y="112.85714"
       transform="translate(0.92857087,0.71931339)" />
    <rect
       style="fill:#ffff00;fill-opacity:1;stroke:#000000;stroke-width:1;stroke-linecap:butt;stroke-linejoin:round;stroke-miterlimit:4;stroke-opacity:0;stroke-dasharray:none;stroke-dashoffset:0"
       id="rect5616"
       width="149.78572"
       height="150"
       x="150"
       y="150"
       transform="translate(0.92857087,0.71931339)" />
    <rect
       y="276.00946"
       x="-3.0637722"
       height="76.428574"
       width="74.99617"
       id="rect5622"
       style="fill:#ff0066;fill-opacity:1;stroke:#000000;stroke-width:1;stroke-linecap:butt;stroke-linejoin:round;stroke-miterlimit:4;stroke-opacity:0;stroke-dasharray:none;stroke-dashoffset:0" />
    <rect
       y="-43.566406"
       x="-131.20445"
       height="75"
       width="74.99617"
       id="rect5636"
       style="fill:#000000;fill-opacity:1;stroke:#000000;stroke-width:1;stroke-linecap:butt;stroke-linejoin:round;stroke-miterlimit:4;stroke-opacity:0;stroke-dasharray:none;stroke-dashoffset:0" />
    <rect
       style="fill:#3771c8;fill-opacity:1;stroke:#000000;stroke-width:1;stroke-linecap:butt;stroke-linejoin:round;stroke-miterlimit:4;stroke-opacity:0;stroke-dasharray:none;stroke-dashoffset:0"
       id="rect5638"
       width="74.99617"
       height="75"
       x="336.8349"
       y="0.71931338" />
    <rect
       y="190.11217"
       x="188.42857"
       height="37.14286"
       width="37.5"
       id="rect5664"
       style="fill:#000000;fill-opacity:1;stroke:#000000;stroke-width:1;stroke-linecap:butt;stroke-linejoin:round;stroke-miterlimit:4;stroke-opacity:0;stroke-dasharray:none;stroke-dashoffset:0" />
    <rect
       style="opacity:0.17733992;fill:#ff0066;fill-opacity:1;stroke:#000000;stroke-width:1;stroke-linecap:butt;stroke-linejoin:round;stroke-miterlimit:4;stroke-opacity:0;stroke-dasharray:none;stroke-dashoffset:0"
       id="rect5704"
       width="74.99617"
       height="76.428574"
       x="75.932404"
       y="227.14789" />
    <rect
       y="75.719315"
       x="225.92857"
       height="75"
       width="74.99617"
       id="rect5706"
       style="opacity:0.23152711;fill:#3771c8;fill-opacity:1;stroke:#000000;stroke-width:1;stroke-linecap:butt;stroke-linejoin:round;stroke-miterlimit:4;stroke-opacity:0;stroke-dasharray:none;stroke-dashoffset:0" />
    <rect
       y="75.719315"
       x="75.932396"
       height="75"
       width="74.99617"
       id="rect5708"
       style="opacity:0.18719213;fill:#000000;fill-opacity:1;stroke:#000000;stroke-width:1;stroke-linecap:butt;stroke-linejoin:round;stroke-miterlimit:4;stroke-opacity:0;stroke-dasharray:none;stroke-dashoffset:0" />
    <rect
       style="opacity:0.26108375;fill:#000000;fill-opacity:1;stroke:#000000;stroke-width:1;stroke-linecap:butt;stroke-linejoin:round;stroke-miterlimit:4;stroke-opacity:0;stroke-dasharray:none;stroke-dashoffset:0"
       id="rect5710"
       width="74.99617"
       height="75"
       x="1.9324036"
       y="1.7193134" />
    <path
       style="fill:#ff0066;fill-opacity:1;fill-rule:evenodd;stroke:none"
       d="m 29.437858,316.36837 9.081339,4.18003 c 2.257247,-5.45174 4.516388,-10.90746 6.777423,-16.36717 5.099516,-11.0683 10.907617,-21.79425 18.168348,-31.50144 0,0 1e-6,0 2e-6,0 3.719254,-4.96889 7.779251,-9.65163 12.46743,-13.60435 2e-6,0 4e-6,-1e-5 5e-6,-1e-5 4.211195,-3.53214 8.907912,-6.52754 14.120091,-7.99787 2.464064,-0.70226 5.037976,-1.0625 7.613171,-1.00197 10e-7,0 2e-6,0 3e-6,0 2.71429,0.0607 5.44225,0.59197 8.04996,1.51233 6.69287,2.34753 12.47625,7.1219 17.40886,12.49194 -4.50435,-5.734 -9.94077,-11.00985 -16.78455,-14.05817 -2.67999,-1.18737 -5.55915,-1.98607 -8.525712,-2.28607 -2.814286,-0.28164 -5.675619,-0.11242 -8.46032,0.45577 -10e-7,0 -2e-6,0 -3e-6,0 -5.860924,1.20988 -11.278419,4.03328 -16.05595,7.50114 -10e-7,0 -3e-6,0 -5e-6,0 -5.327594,3.84709 -10.036977,8.46788 -14.306641,13.36459 -8.356339,9.57849 -15.319164,20.31037 -21.458403,31.36719 -2.696455,5.3107 -5.394804,10.62538 -8.095048,15.94406 z"
       id="path5720"
       inkscape:path-effect="#path-effect5722"
       inkscape:original-d="m 33.978525,318.45839 c 0,0 42.931485,-108.75706 89.145965,-54.37853"
       inkscape:connector-curvature="0" />
    <path
       inkscape:connector-curvature="0"
       inkscape:original-d="m 373.99188,40.811314 c 0,0 -73.27759,-0.558038 -109.16279,72.765136"
       inkscape:path-effect="#path-effect5726"
       id="path5724"
       d="m 373.99407,45.811313 -0.004,-9.999999 c -0.006,1.38e-4 -0.0118,2.93e-4 -0.0176,4.49e-4 -0.0168,4.49e-4 -0.0335,9.35e-4 -0.05,0.0014 -0.0648,0.002 -0.12721,0.0043 -0.18729,0.0067 -0.244,0.0097 -0.47951,0.02176 -0.70662,0.03514 0,0 -10e-6,0 -10e-6,0 -0.87269,0.05144 -1.72789,0.121489 -2.56623,0.202599 0,1e-6 0,1e-6 0,1e-6 -3.09991,0.299872 -6.1536,0.749264 -9.16028,1.301264 0,0 0,0 0,1e-6 0,0 0,0 0,0 -10.27016,1.882916 -20.25447,4.978547 -29.72564,9.122544 0,10e-7 0,2e-6 -10e-6,3e-6 -13.18771,5.76619 -25.37025,13.656527 -35.82604,23.328081 -13.31345,12.326145 -23.65998,27.458791 -30.92089,43.766884 8.42338,-15.739166 19.73041,-29.86983 33.45435,-40.824646 10.77501,-8.609549 22.98258,-15.277974 35.84427,-19.825578 0,0 0,-10e-7 0,-10e-7 0,-1e-6 0,-1e-6 0,-1e-6 9.2579,-3.27144 18.84477,-5.489006 28.50329,-6.541091 2.83012,-0.307616 5.64491,-0.516328 8.43352,-0.580491 0,0 0,0 0,0 0.75457,-0.01736 1.49373,-0.02438 2.21646,-0.01354 10e-6,0 10e-6,0 10e-6,0 0,0 0,0 0,0 0.18817,0.0028 0.36802,0.0068 0.53942,0.01291 0.0463,0.0015 0.0901,0.0032 0.1317,0.0052 0.0106,4.93e-4 0.021,0.001 0.0313,0.0015 0.004,1.9e-4 0.007,3.8e-4 0.0107,5.87e-4 z"
       style="fill:#3771c8;fill-opacity:1;fill-rule:evenodd;stroke:none"
       sodipodi:nodetypes="cc" />
    <path
       inkscape:connector-curvature="0"
       inkscape:original-d="m 37.841989,45.02971 c 0,0 -103.254001,6.23027 -125.957645,-50.9304671"
       inkscape:path-effect="#path-effect5726-5"
       id="path5724-4"
       d="m 38.120557,50.021944 -0.557152,-9.984467 c -0.0059,5.74e-4 -0.01173,0.0011 -0.01762,0.0017 -0.01707,0.0017 -0.03422,0.0033 -0.05146,0.0049 -0.06774,0.0064 -0.136813,0.01262 -0.207217,0.01882 -0.269078,0.0239 -0.542981,0.0463 -0.821576,0.06799 -2e-6,0 -5e-6,0 -7e-6,0 -1.061416,0.08266 -2.132816,0.15151 -3.213193,0.21213 -2e-6,0 -4e-6,10e-7 -7e-6,10e-7 -3.906949,0.219184 -7.835147,0.324174 -11.776559,0.341996 -12.5488512,0.05287 -25.1123387,-0.757828 -37.51928,-2.729157 -10e-7,0 -2e-6,0 -4e-6,0 -14.590299,-2.336774 -29.029822,-6.165835 -42.04908,-13.117707 -2e-6,-10e-7 -4e-6,-2e-6 -6e-6,-3e-6 -6.372694,-3.400502 -12.37475,-7.56724 -17.532984,-12.671246 -5.204729,-5.1477364 -9.515887,-11.2767879 -12.490069,-18.0677031 2.495841,6.9809075 6.407329,13.491167 11.366444,19.1267761 4.912168,5.580203 10.783599,10.314336 17.116012,14.272205 1e-6,1e-6 2e-6,1e-6 3e-6,2e-6 12.916205,8.069075 27.576686,13.137808 42.403077,16.539975 2e-6,0 5e-6,10e-7 7e-6,10e-7 12.6139881,2.910036 25.501186,4.656891 38.432847,5.495948 3e-6,0 5e-6,0 8e-6,0 4.063789,0.264818 8.147024,0.439097 12.247414,0.494734 3e-6,0 5e-6,0 8e-6,0 1.13359,0.0154 2.275855,0.02132 3.426959,0.01209 0.302066,-0.0024 0.608743,-0.0061 0.920066,-0.01194 10e-7,0 2e-6,0 4e-6,0 0.07854,-0.0014 0.158396,-0.003 0.239567,-0.005 0.02066,-4.91e-4 0.04141,-0.001 0.06224,-0.0015 0.0072,-1.92e-4 0.01436,-3.85e-4 0.02156,-5.79e-4 z"
       style="fill:#bfbfbf;fill-opacity:1;fill-rule:evenodd;stroke:none"
       sodipodi:nodetypes="cc" />
    <path
       sodipodi:nodetypes="cc"
       style="fill:#000000;fill-rule:evenodd;stroke:none"
       d="m -4.3898877,76.006211 1.7116574,9.849821 C 2.9820007,84.668338 8.645774,83.480067 14.31309,82.291221 c 12.770127,-2.206567 25.703018,-3.549855 38.677632,-3.58634 1e-6,0 3e-6,0 4e-6,0 7.412269,-0.02191 14.82004,0.383653 22.141606,1.443631 2e-6,10e-7 4e-6,10e-7 7e-6,10e-7 7.193606,1.044369 14.304706,2.69975 21.067621,5.336403 6.46852,2.524182 12.63059,5.959626 17.88386,10.55287 5.36889,4.688814 9.72206,10.619814 12.62547,17.252374 -2.43867,-6.81715 -6.40982,-13.13884 -11.59954,-18.346904 -5.07584,-5.08851 -11.20133,-9.11068 -17.736345,-12.184245 -6.821511,-3.211155 -14.080503,-5.45509 -21.441,-7.039696 -2e-6,-10e-7 -5e-6,-10e-7 -7e-6,-2e-6 C 68.441279,74.10361 60.816209,73.147858 53.183704,72.646707 39.798262,71.770543 26.321482,72.225687 12.962806,73.602874 7.1821173,74.40341 1.3978859,75.204522 -4.3898877,76.006211 z"
       id="path5749"
       inkscape:path-effect="#path-effect5751"
       inkscape:original-d="m -3.5340664,80.931123 c 0,0 107.5397164,-24.8017 130.2433564,32.359037"
       inkscape:connector-curvature="0" />
    <text
       xml:space="preserve"
       style="font-size:20px;font-style:normal;font-variant:normal;font-weight:normal;font-stretch:normal;line-height:125%;letter-spacing:0px;word-spacing:0px;fill:#000000;fill-opacity:1;stroke:none;font-family:Gentium;-inkscape-font-specification:Gentium"
       x="428.15707"
       y="75.719315"
       id="text5761"
       sodipodi:linespacing="125%"><tspan
         sodipodi:role="line"
         id="tspan5763"
         x="428.15707"
         y="75.719315"
         style="font-style:normal;font-variant:normal;font-weight:normal;font-stretch:normal;font-family:Adobe Caslon Pro;-inkscape-font-specification:Adobe Caslon Pro" /></text>
    <text
       xml:space="preserve"
       style="font-size:20px;font-style:normal;font-variant:normal;font-weight:normal;font-stretch:normal;line-height:125%;letter-spacing:0px;word-spacing:0px;fill:#ffffff;fill-opacity:1;stroke:none;font-family:Gentium;-inkscape-font-specification:Gentium"
       x="350.44135"
       y="54.242092"
       id="text5765"
       sodipodi:linespacing="125%"><tspan
         sodipodi:role="line"
         id="tspan5767"
         x="350.44135"
         y="54.242092"
         style="font-size:56px;font-style:normal;font-variant:normal;font-weight:normal;font-stretch:normal;fill:#ffffff;font-family:Adobe Caslon Pro;-inkscape-font-specification:Adobe Caslon Pro">E<tspan
   style="font-size:65.00091553%;baseline-shift:sub;fill:#ffffff"
   id="tspan5769">i</tspan></tspan></text>
    <text
       sodipodi:linespacing="125%"
       id="text5771"
       y="327.73752"
       x="10.561741"
       style="font-size:56px;font-style:normal;font-variant:normal;font-weight:normal;font-stretch:normal;line-height:125%;letter-spacing:0px;word-spacing:0px;fill:#ffffff;fill-opacity:1;stroke:none;font-family:Gentium;-inkscape-font-specification:Gentium"
       xml:space="preserve"><tspan
         sodipodi:role="line"
         id="tspan5777"
         x="10.561741"
         y="327.73752">ψ<tspan
   style="font-size:65.00091553%;baseline-shift:sub"
   id="tspan5803">i</tspan></tspan></text>
    <text
       xml:space="preserve"
       style="font-size:56px;font-style:normal;font-variant:normal;font-weight:normal;font-stretch:normal;line-height:125%;letter-spacing:0px;word-spacing:0px;fill:#ffffff;fill-opacity:1;stroke:none;font-family:Gentium;-inkscape-font-specification:Gentium"
       x="-9.3962059"
       y="330.17621"
       id="text5791"
       sodipodi:linespacing="125%"><tspan
         sodipodi:role="line"
         id="tspan5795"
         x="-9.3962059"
         y="330.17621"
         style="font-size:40px" /></text>
    <rect
       inkscape:transform-center-x="19.25"
       y="76.076454"
       x="150.92857"
       height="37.5"
       width="37.5"
       id="rect5797"
       style="opacity:0.29556651;fill:#ff0000;fill-opacity:1;stroke:#000000;stroke-width:1;stroke-linecap:butt;stroke-linejoin:round;stroke-miterlimit:4;stroke-opacity:0;stroke-dasharray:none;stroke-dashoffset:0" />
    <text
       xml:space="preserve"
       style="font-size:20px;font-style:normal;font-variant:normal;font-weight:normal;font-stretch:normal;line-height:125%;letter-spacing:0px;word-spacing:0px;fill:#000000;fill-opacity:1;stroke:none;font-family:Gentium;-inkscape-font-specification:Gentium"
       x="213.92857"
       y="31.008583"
       id="text5799"
       sodipodi:linespacing="125%"><tspan
         sodipodi:role="line"
         id="tspan5801"
         x="213.92857"
         y="31.008583"
         style="font-size:28px;fill:#ffffff">m</tspan></text>
    <text
       xml:space="preserve"
       style="font-size:56px;font-style:normal;font-variant:normal;font-weight:normal;font-stretch:normal;line-height:125%;letter-spacing:0px;word-spacing:0px;fill:#ffffff;fill-opacity:1;stroke:none;font-family:Gentium;-inkscape-font-specification:Gentium"
       x="-49.438259"
       y="123.57645"
       id="text5805"
       sodipodi:linespacing="125%"><tspan
         y="123.57645"
         x="-49.438259"
         id="tspan5807"
         sodipodi:role="line">ψ<tspan
   style="font-size:65.00091553%;baseline-shift:sub"
   id="tspan5811">0</tspan></tspan></text>
    <text
       sodipodi:linespacing="125%"
       id="text5813"
       y="2.1478751"
       x="-123.72398"
       style="font-size:48px;font-style:normal;font-variant:normal;font-weight:normal;font-stretch:normal;line-height:125%;letter-spacing:0px;word-spacing:0px;fill:#ffffff;fill-opacity:1;stroke:none;font-family:Gentium;-inkscape-font-specification:Gentium"
       xml:space="preserve"><tspan
         sodipodi:role="line"
         id="tspan5815"
         x="-123.72398"
         y="2.1478751"
         style="font-size:48px">ψ<tspan
   style="font-size:65.00091553%;baseline-shift:sub"
   id="tspan5821">eq</tspan></tspan></text>
    <path
       style="fill:#ff0000;fill-rule:evenodd;stroke:none"
       d="m 229.30049,36.820135 -8.601,-5.068811 c -4.28577,8.393236 -8.58629,16.809773 -12.90156,25.249612 0,10e-7 0,3e-6 0,4e-6 -4.62122,7.218587 -9.91922,14.065268 -16.10055,20.144951 0,0 0,10e-7 0,10e-7 -6.71388,6.606834 -14.48216,12.307409 -23.30452,16.068394 9.20723,-2.684378 17.8468,-7.502028 25.55967,-13.483988 7.13112,-5.536767 13.56109,-12.056056 19.34645,-19.11565 0,-1e-6 0,-2e-6 0,-2e-6 5.31909,-7.908202 10.65293,-15.839706 16.00151,-23.794511 z"
       id="path5823"
       inkscape:path-effect="#path-effect5825"
       inkscape:original-d="m 225,34.285714 c 0,0 -19.64286,45.714286 -56.60714,58.928572"
       inkscape:connector-curvature="0"
       transform="translate(0.92857087,0.71931339)"
       sodipodi:nodetypes="cc" />
  </g>
</svg>
